<svg width="16" height="14" viewBox="0 0 16 14" fill="none" xmlns="http://www.w3.org/2000/svg">
<path d="M14.0772 8.39999H1.75733C0.906818 8.39999 0.217285 7.61646 0.217285 6.64999C0.217285 5.68353 0.906818 4.89999 1.75733 4.89999H14.0772C14.9278 4.89999 15.6173 5.68353 15.6173 6.64999C15.6173 7.61662 14.9278 8.39999 14.0772 8.39999Z" fill="#5D648A"/>
<path d="M4.5395 13.3C3.69878 13.3 3.01719 12.6304 3.01733 11.8045C3.01733 11.5421 3.08769 11.2841 3.22127 11.0568L9.31021 0.693418C9.76118 -0.00364518 10.7021 -0.209456 11.4115 0.233569C12.0791 0.650517 12.3104 1.50026 11.9437 2.18877L5.85459 12.5522C5.58329 13.014 5.08223 13.2989 4.5395 13.3Z" fill="#5D648A"/>
<path d="M10.5979 13.3C10.0541 13.3 9.55165 13.015 9.2798 12.5523L3.19108 2.18884C2.80135 1.45701 3.08933 0.553426 3.83424 0.170544C4.53506 -0.189627 5.39998 0.0374951 5.82438 0.693344L11.9131 11.0568C12.3335 11.7721 12.0841 12.6866 11.356 13.0997C11.1247 13.2309 10.8621 13.3 10.595 13.3H10.5979Z" fill="#5D648A"/>
</svg>
