<svg width="29" height="27" viewBox="0 0 29 27" fill="none" xmlns="http://www.w3.org/2000/svg">
<path d="M23.5554 7.55803L13.2977 0.76001L3.04004 7.55803V25.08H23.56V7.55803H23.5554Z" fill="#E1EFFB"/>
<path d="M23.5553 7.55801L13.4698 0.76001L11.3999 2.15525L21.0329 8.64819H21.0374V25.08H23.5599V7.55801H23.5553Z" fill="#CCDFED"/>
<path d="M1.55839 10.4711L13.5074 2.47576C13.612 2.40576 13.7481 2.40576 13.8526 2.47576L25.8016 10.4711C26.1381 10.6962 26.576 10.6962 26.9125 10.4711C27.5092 10.0719 27.5092 9.19041 26.9125 8.79122L13.8526 0.052496C13.7481 -0.0174987 13.612 -0.0174987 13.5074 0.052496L0.447457 8.79122C-0.149152 9.19041 -0.149152 10.0719 0.447457 10.4711C0.783951 10.6963 1.22189 10.6963 1.55839 10.4711Z" fill="#FF4C4C"/>
<circle cx="13.6799" cy="7.60001" r="2.28" fill="#FFB125"/>
<path d="M15.9599 7.60001C15.9599 7.45224 15.9454 7.3079 15.9185 7.16796H14.1101V5.36108C13.9708 5.33444 13.827 5.32001 13.6799 5.32001C13.5328 5.32001 13.3891 5.3345 13.2497 5.36108V7.16796H11.4413C11.4145 7.3079 11.3999 7.45219 11.3999 7.60001C11.3999 7.74652 11.4143 7.8896 11.4407 8.02841H13.2497V9.83893C13.3891 9.86557 13.5328 9.88001 13.68 9.88001C13.8271 9.88001 13.9708 9.86552 14.1102 9.83893V8.02841H15.9192C15.9455 7.8896 15.9599 7.74652 15.9599 7.60001Z" fill="#FF901D"/>
<rect x="9.87988" y="15.96" width="6.84" height="10.64" fill="#FFB125"/>
<rect x="13.6802" y="15.96" width="3.8" height="10.64" fill="#FF901D"/>
<path d="M25.769 25.08H1.5905C1.13169 25.08 0.759766 25.4202 0.759766 25.84C0.759766 26.2597 1.13169 26.6 1.5905 26.6H25.769C26.2278 26.6 26.5998 26.2597 26.5998 25.84C26.5998 25.4202 26.2278 25.08 25.769 25.08Z" fill="#2D5871"/>
<path d="M27.3021 9.98128C27.3086 9.96306 27.3151 9.9449 27.3206 9.92642C27.3236 9.91605 27.3257 9.90553 27.3284 9.89511C27.3331 9.87652 27.3382 9.85803 27.3418 9.83927C27.3439 9.82885 27.345 9.81827 27.3466 9.8078C27.3502 9.78359 27.354 9.75937 27.3557 9.73494C27.3574 9.71078 27.3597 9.68663 27.36 9.66241C27.3601 9.65222 27.3593 9.64213 27.3591 9.63193C27.3588 9.61164 27.3584 9.59135 27.3568 9.57107C27.356 9.5612 27.3544 9.55138 27.3534 9.54151C27.3511 9.52095 27.3487 9.5005 27.3452 9.4801C27.3436 9.47067 27.3413 9.4614 27.3394 9.45196C27.3352 9.43129 27.3308 9.41068 27.3252 9.39023C27.3228 9.38129 27.3198 9.37245 27.3171 9.36351C27.3109 9.34289 27.3043 9.32244 27.2966 9.30221C27.2934 9.2937 27.2899 9.28536 27.2864 9.27691C27.2781 9.25656 27.2693 9.2365 27.2596 9.21665C27.2557 9.20863 27.2515 9.20072 27.2473 9.19281C27.2369 9.17302 27.2259 9.15355 27.2141 9.13435C27.2117 9.13053 27.2099 9.1265 27.2074 9.12274C27.2073 9.12295 27.2072 9.12312 27.207 9.12334C27.1346 9.00919 27.0372 8.90661 26.9129 8.82503L25.608 7.96791L25.4619 8.18948C25.2065 8.57668 24.6803 8.68379 24.2907 8.42785L13.8528 1.57152C13.7482 1.50281 13.6121 1.50281 13.5076 1.57152L1.55816 9.42061C1.22166 9.64163 0.783703 9.64163 0.4472 9.42061C0.323102 9.33908 0.225183 9.23688 0.152669 9.12285C-0.123415 9.55711 -0.0251649 10.165 0.448359 10.475C0.789889 10.6987 1.23812 10.6844 1.57932 10.4603L13.5076 2.62519C13.6121 2.55648 13.7482 2.55648 13.8528 2.62519L25.8021 10.4742C26.1386 10.6952 26.5766 10.6952 26.9131 10.4742C26.9389 10.4573 26.9632 10.4391 26.9868 10.4204C26.995 10.4139 27.0029 10.4072 27.0108 10.4005C27.0258 10.3878 27.0403 10.3748 27.0542 10.3615C27.0627 10.3535 27.0714 10.3456 27.0795 10.3374C27.0964 10.3202 27.1126 10.3025 27.128 10.2844L27.1289 10.2831C27.1796 10.2232 27.2216 10.1586 27.2557 10.0908L27.2578 10.0876C27.2615 10.0801 27.2643 10.0724 27.2678 10.0649C27.276 10.0473 27.2842 10.0298 27.2912 10.0119C27.2952 10.0017 27.2984 9.99148 27.3021 9.98128Z" fill="#F33939"/>
<path d="M26.5944 25.7557C26.5936 25.7501 26.5924 25.7447 26.5916 25.7392C26.5882 25.7163 26.584 25.6937 26.5785 25.6715C26.5775 25.6676 26.5763 25.6638 26.5752 25.6598C26.5688 25.6355 26.5611 25.6118 26.5521 25.5885C26.5515 25.587 26.5509 25.5855 26.5503 25.584C26.5403 25.5584 26.5289 25.5336 26.5161 25.5093V25.5093C26.3816 25.2555 26.0981 25.08 25.769 25.08H24.0745V25.4192C24.0745 25.706 23.8203 25.9386 23.5068 25.9386H1.59049C1.26144 25.9386 0.977941 25.7631 0.843427 25.5093C0.77647 25.6356 0.745285 25.7808 0.766203 25.9347C0.818523 26.3187 1.18968 26.6 1.61278 26.6H25.769C26.2278 26.6 26.5998 26.2597 26.5998 25.84C26.5998 25.8115 26.5977 25.7834 26.5944 25.7557Z" fill="#1D4859"/>
<path d="M19.0002 26.6H16.7202V10.997C16.7202 10.3801 17.2306 9.88 17.8602 9.88C18.4898 9.88 19.0002 10.3801 19.0002 10.997V26.6Z" fill="#FF6D3A"/>
<path d="M17.9866 9.88C17.8018 9.88 17.6292 9.93542 17.48 10.0306C17.7826 10.2239 17.9866 10.5838 17.9866 10.997V26.6H19V10.997C19 10.3802 18.5462 9.88 17.9866 9.88Z" fill="#ED5729"/>
<path d="M27.4172 21.28H8.30296C7.91475 21.28 7.6001 20.9504 7.6001 20.5438V12.8962C7.6001 12.4896 7.91475 12.16 8.30296 12.16H27.4172C27.8054 12.16 28.1201 12.4896 28.1201 12.8962V20.5438C28.1201 20.9504 27.8054 21.28 27.4172 21.28Z" fill="#61AFF6"/>
<path d="M27.4172 12.16H25.5765V19.4237C25.5765 19.8303 25.2618 20.1599 24.8736 20.1599H7.6001V20.5438C7.6001 20.9504 7.91481 21.28 8.30296 21.28H27.4172C27.8054 21.28 28.1201 20.9504 28.1201 20.5438V12.8963C28.1201 12.4897 27.8054 12.16 27.4172 12.16Z" fill="#55A2F0"/>
<path fill-rule="evenodd" clip-rule="evenodd" d="M14.1797 15.7625C14.1797 16.4613 13.8557 16.838 13.4217 16.9778L14.1797 18.4542C14.2029 18.4846 14.2086 18.5272 14.2086 18.5515C14.2086 18.752 13.9598 18.9647 13.74 18.9647C13.6359 18.9647 13.5375 18.8978 13.4797 18.7763L12.6581 17.0992H12.172V18.6851C12.172 18.8492 11.9869 18.9343 11.796 18.9343C11.6109 18.9343 11.4199 18.8492 11.4199 18.6851V14.7356C11.4199 14.6081 11.5183 14.4926 11.6629 14.4926H12.8085C13.5664 14.4926 14.1797 14.7963 14.1797 15.7625ZM12.172 16.4795H12.8084C13.1845 16.4795 13.4275 16.3155 13.4274 15.8354C13.4274 15.3555 13.1845 15.1853 12.8084 15.1853H12.172V16.4795Z" fill="white"/>
<path d="M17.2225 15.1853C17.373 15.1853 17.4597 15.0212 17.4597 14.8328C17.4597 14.6688 17.3845 14.4926 17.2225 14.4926H15.1628C14.995 14.4926 14.833 14.5777 14.833 14.7417V18.6852C14.833 18.8493 14.995 18.9343 15.1628 18.9343H17.2225C17.3845 18.9343 17.4597 18.758 17.4597 18.5941C17.4597 18.4057 17.3729 18.2417 17.2225 18.2417H15.5851V17.0203H16.4646C16.6266 17.0203 16.7018 16.8563 16.7018 16.7165C16.7018 16.5525 16.615 16.4005 16.4646 16.4005H15.5851V15.1853H17.2225Z" fill="white"/>
<path d="M20.4452 14.4926C20.2542 14.4926 20.0691 14.5655 20.0691 14.7356V17.1783L18.9524 14.9119C18.7731 14.5534 18.6631 14.4926 18.3912 14.4926C18.2003 14.4926 18.0151 14.5716 18.0151 14.7417V18.6852C18.0151 18.8493 18.2003 18.9343 18.3912 18.9343C18.5764 18.9343 18.7673 18.8492 18.7673 18.6852V16.2425L20.0112 18.6852C20.1096 18.8736 20.2658 18.9343 20.4452 18.9343C20.6303 18.9343 20.8212 18.8492 20.8212 18.6852V14.7356C20.8212 14.5655 20.6303 14.4926 20.4452 14.4926Z" fill="white"/>
<path d="M24.0376 14.4926H21.5902C21.4282 14.4926 21.353 14.675 21.353 14.845C21.353 15.0395 21.4399 15.2035 21.5902 15.2035H22.4407V18.6852C22.4407 18.8493 22.6259 18.9343 22.8169 18.9343C23.002 18.9343 23.1929 18.8492 23.1929 18.6852V15.2035H24.0376C24.1881 15.2035 24.2748 15.0334 24.2748 14.845C24.2749 14.6749 24.1997 14.4926 24.0376 14.4926Z" fill="white"/>
</svg>
